<svg id="ed4bafd5-2e7d-4ff0-9f40-476b9a7fd9e4" xmlns="http://www.w3.org/2000/svg" viewBox="0 0 821.76 601.73"><defs><style>.cls-1{fill:#ffb6b6;}.cls-2{fill:#2f2e41;}.cls-3{fill:#3f3d56;}.cls-4{fill:#fff;}.cls-5{fill:#f1f1f1;}.cls-6{fill:#ff6582;}.cls-7{fill:#50cdfa;}.cls-8{fill:#e5e5e5;}.cls-9{fill:#e4e4e4;}.cls-10{fill:#cacaca;}</style></defs><polygon class="cls-1" points="800.34 584 792.2 586.61 778.28 556.44 790.3 552.59 800.34 584"/><path class="cls-2" d="M805,591.23l-26.26,8.4-.11-.33a10.73,10.73,0,0,1,6.95-13.49h0l3.64-5.17,10.11.77,2.29-.73Z"/><polygon class="cls-1" points="723.13 592.12 714.58 592.12 710.52 559.15 723.13 559.15 723.13 592.12"/><path class="cls-2" d="M725.31,600.41H697.75v-.35a10.73,10.73,0,0,1,10.73-10.73h0l5-3.82,9.4,3.82h2.4Z"/><path class="cls-1" d="M682.3,251.32a7,7,0,0,0,1.08,9.86,7.12,7.12,0,0,0,1,.69l-4.1,24.58,11.84-5.25,2.08-22.54a7.05,7.05,0,0,0-11.93-7.34Z"/><path class="cls-2" d="M790.22,455.25s2-26-5.07-30.8-65.34-7.25-65.34-7.25L716.19,422s-.33,2.22-5.81,20.33l-2.24,101.05c-.22,9.85-1.94,22.23,2.17,24.76l2,10h11l6.08-16.81a22.09,22.09,0,0,0,3.17-14.16l3.32-14.85a1.82,1.82,0,0,1-.48-.84,8.73,8.73,0,0,1,1.39-6.34,11.39,11.39,0,0,1,1-1.23l12.16-54.38,16.39,63.61,10.13,22.6c-1,2.37-.34,4.51,1.48,6.5-.68,1.86,2.23,3.16,3.49,5.55l3.9,7.35,11-6,1-6c.67-1.78-1.12-3-2.44-6.65,2.46-2.62,2.33-5.17,0-7.65l-4.16-17.93,0-8.22,0-8.79Z"/><circle class="cls-1" cx="744.23" cy="281.74" r="19.11"/><path class="cls-2" d="M763.45,284.74l-.31-.63c-.49-1-4.53-9.09-5-11.18l-5.08.6H739.77l1.84-2.76-4.86.63a11.24,11.24,0,0,0-5,1.87,7.78,7.78,0,0,0-2.25,2.32c-1.73,3-4.39,7.84-4.42,7.89l-.25.47-2.21-3.71c0-.15-2.76-14.41,6.39-19.24a14.72,14.72,0,0,1,14-8,6,6,0,0,1,4.1-2c2.17-.11,4.42,1,6.68,3.4,3,3.16,7.13,7.48,9.62,12.28l.68,1a7.73,7.73,0,0,1,1.38,4.79,16.08,16.08,0,0,1-.55,8.17Z"/><path class="cls-3" d="M790.13,318.11l-20.77-5.82-10.57-7.84L738,307.76l-.09.12c-3.64,4.72-9.24,9.39-15.2,9.58a21.16,21.16,0,0,0-4.55.65l-2,36.46v32.6a1.92,1.92,0,0,1,1.26,1.39,26.44,26.44,0,0,1-.17,10,16.4,16.4,0,0,1-1.09,3.35,8.82,8.82,0,0,1,0,7.7c-1.77,1.69-1.55,3.53,0,5.48V422c33.71,28.13,68.87,4.05,68.87,4.05l-1.13-53.55Z"/><path class="cls-3" d="M722.84,323.12l-4.66-5-25.67-2.91,2.41-39.43-14-10L674.59,300c-2.18,1.89-2.59,3.74-1,5.57-1.74,3.49-2.19,6.33-1.6,8.64l-1.31,7.09,47.5,33.27Z"/><path class="cls-1" d="M786.34,452.05a7,7,0,0,1,2.13-9.69,7.15,7.15,0,0,1,1.1-.57l-1.47-24.88,11.21,6.48L799,446a7.06,7.06,0,0,1-12.65,6Z"/><path class="cls-3" d="M782.33,324.33l7.8-6.22s8,4.4,10.41,12.29,6.68,52.81,6.68,52.81l.65,16.73c.84,2.65.62,5-1.38,6.9,3,3.11,2.56,5.7-1.55,7.74l-4.26,26.3-13.37-2.78,1.7-51.85-10.93-33.39Z"/><path class="cls-3" d="M248.31,118.34h-2.73v-75A43.39,43.39,0,0,0,202.19,0H43.38A43.38,43.38,0,0,0,0,43.38V454.61A43.39,43.39,0,0,0,43.38,498H202.19a43.39,43.39,0,0,0,43.39-43.39V171.7h2.73Z"/><path class="cls-4" d="M204,11.29H183.21A15.38,15.38,0,0,1,169,32.49H78a15.39,15.39,0,0,1-14.25-21.2H44.37A32.4,32.4,0,0,0,12,43.69V454.31a32.4,32.4,0,0,0,32.4,32.4H204a32.39,32.39,0,0,0,32.39-32.4h0V43.69A32.39,32.39,0,0,0,204,11.29Z"/><path class="cls-5" d="M202.41,165.08a77.92,77.92,0,0,1-4.91,27.32A75.85,75.85,0,0,1,192.07,204a78.29,78.29,0,0,1-135.83,0c-.69-1.21-1.35-2.43-2-3.67a78.26,78.26,0,1,1,148.14-35.23Z"/><circle class="cls-6" cx="128.23" cy="163.33" r="14.96"/><path class="cls-7" d="M54.27,200.31c6.59-7.12,15.4-18.43,23.67-10.26,4.14,3.86,10.64,13.41,16.85,7.16l48.52-48.52a9.62,9.62,0,0,1,13.62.09l.16.16L197.5,192.4A75.85,75.85,0,0,1,192.07,204H56.24Z"/><path id="a69ed34c-3aa3-4521-988a-f33ab8935c86" class="cls-7" d="M160.87,324a2,2,0,0,0,0,4h21.22a2,2,0,1,0,0-4Z"/><path id="a82b6965-e745-4a79-ac21-2b08adebfabf" class="cls-8" d="M65.3,294.3a2,2,0,0,0,0,4H183a2,2,0,1,0,0-4Z"/><path id="a01cc774-2c01-4baa-ba73-f6c316fae153" class="cls-8" d="M65.3,309.14a2,2,0,0,0,0,4.05H183a2,2,0,0,0,0-4.05H65.3Z"/><path id="f6ecfbd0-b722-47f2-8687-80b685eaa1e2" class="cls-7" d="M160.87,419.26a2,2,0,0,0,0,4h21.22a2,2,0,1,0,0-4Z"/><path id="beaff243-1f9b-420c-bc28-f0641d12fad8" class="cls-8" d="M65.3,389.56a2,2,0,0,0,0,4.05H183a2,2,0,0,0,0-4.05H65.3Z"/><path id="a8605179-8b03-4e4a-93a2-1a820418a8d0" class="cls-8" d="M65.3,404.41a2,2,0,0,0,0,4H183a2,2,0,1,0,0-4Z"/><path class="cls-9" d="M671.08,227.89l-16.15-7.31a13.17,13.17,0,0,1-13.65,12.67,13.32,13.32,0,0,1-4.93-1.16L565.46,200a13.15,13.15,0,0,1-3.63-21.54l-15.09-6.83a27.71,27.71,0,0,0-36.66,13.83l-144.67,320a27.7,27.7,0,0,0,13.82,36.66h0l124.34,56.22a27.69,27.69,0,0,0,36.66-13.83h0L684.91,264.55a27.71,27.71,0,0,0-13.83-36.66Z"/><path class="cls-4" d="M527.18,380.23a68.13,68.13,0,0,1-39.64-55.4c-.11-1.18-.2-2.4-.25-3.61a67.17,67.17,0,0,1,6-30.85,67.92,67.92,0,1,1,110.11,75.82A65.88,65.88,0,0,1,595,373.4,68.11,68.11,0,0,1,527.18,380.23Zm55.14-121.94a66,66,0,0,0-87.22,32.9,65.19,65.19,0,0,0-5.81,29.95c0,1.17.13,2.35.24,3.49a65.94,65.94,0,0,0,104.26,47.15,63.5,63.5,0,0,0,8.18-7,65.94,65.94,0,0,0-19.65-106.49Z"/><rect class="cls-4" x="555.7" y="250.84" width="2" height="132.85" transform="translate(-76.65 220.13) rotate(-20.96)"/><rect class="cls-4" x="487.63" y="317.26" width="132.85" height="2" transform="translate(-77.18 219.21) rotate(-20.96)"/><path class="cls-4" d="M554.2,477.16,436.85,424.1a3.6,3.6,0,0,1-1.8-4.77l11-24.42a3.59,3.59,0,0,1,4.76-1.79l117.36,53.06A3.62,3.62,0,0,1,570,451l-11,24.41A3.61,3.61,0,0,1,554.2,477.16ZM450,394.94a1.6,1.6,0,0,0-2.12.8l-11,24.41a1.6,1.6,0,0,0,.8,2.12L555,475.34a1.62,1.62,0,0,0,2.13-.8l11-24.42a1.6,1.6,0,0,0-.79-2.12Z"/><path class="cls-4" d="M525.77,540,408.42,487a3.61,3.61,0,0,1-1.8-4.77l11-24.41a3.6,3.6,0,0,1,4.76-1.8l117.36,53.06a3.61,3.61,0,0,1,1.8,4.77l-11,24.41A3.6,3.6,0,0,1,525.77,540ZM421.6,457.81a1.6,1.6,0,0,0-2.12.8l-11,24.42a1.61,1.61,0,0,0,.8,2.12L526.6,538.21a1.61,1.61,0,0,0,2.12-.8l11-24.41a1.61,1.61,0,0,0-.8-2.12Z"/><path class="cls-2" d="M480.42,381A78.09,78.09,0,0,0,465.2,348a103.24,103.24,0,0,0-27.81-24.5,123.34,123.34,0,0,0-35.61-14.6c-15.61-3.75-31.73-5-47.75-4.82s-32.22,1.67-48.26,3.35l-6.12.65c-1.9.21-1.92,3.21,0,3,15.8-1.68,31.63-3.34,47.52-3.85s31.64.11,47.15,3.12a125.8,125.8,0,0,1,36.94,13.06,104.61,104.61,0,0,1,28.52,22.68,77.25,77.25,0,0,1,16.76,31.23c.38,1.46.7,2.93,1,4.41C477.88,383.64,480.78,382.84,480.42,381Z"/><path class="cls-2" d="M310.37,286.63l-24,25.49a1.51,1.51,0,0,0,0,2.14,1.42,1.42,0,0,0,.28.22l21.62,10.33c1.73.83,3.26-1.76,1.51-2.59l-21.61-10.33.3,2.35,24-25.48c1.32-1.41-.79-3.54-2.12-2.13Z"/><path class="cls-10" d="M820.57,601.73H363.27a1.19,1.19,0,1,1,0-2.38h457.3a1.19,1.19,0,0,1,0,2.38Z"/></svg>