<svg id="a3b698d4-91aa-4644-9cd7-168aa6af3798" xmlns="http://www.w3.org/2000/svg" viewBox="0 0 835.21 613.1"><defs><style>.cls-1{fill:#f1f1f1;}.cls-2{fill:#50cdfa;}.cls-3{fill:#3f3d56;}.cls-4{fill:#cbcbcb;}.cls-5{fill:#ffb7b7;}.cls-6{fill:#2f2e41;}.cls-7{fill:#e5e5e5;}</style></defs><path class="cls-1" d="M789.43,613.1l1-1.76c-12.76-6.9-28.63-15.48-36.92-29.57-8.17-13.88-8.36-32.74-.48-49.21,6.7-14,19-26.57,35.61-36.31,3.27-1.92,6.71-3.74,10-5.51,8-4.25,16.34-8.65,23.19-14.9,9.43-8.6,16.57-23,11.25-35.89a23.88,23.88,0,0,0-20.68-14.47l-.11,2a21.85,21.85,0,0,1,18.94,13.25c4.95,11.95-1.83,25.5-10.75,33.63-6.66,6.08-14.85,10.42-22.77,14.62-3.34,1.77-6.8,3.6-10.11,5.54-16.94,10-29.53,22.8-36.4,37.18-8.16,17.06-8,36.63.56,51.09S776.46,606.08,789.43,613.1Z"/><ellipse class="cls-1" cx="799.71" cy="427.52" rx="17.5" ry="8.5"/><ellipse class="cls-1" cx="785.71" cy="483.52" rx="17.5" ry="8.5"/><ellipse class="cls-1" cx="817.71" cy="492.52" rx="17.5" ry="8.5"/><ellipse class="cls-1" cx="767.71" cy="539.52" rx="17.5" ry="8.5"/><ellipse class="cls-1" cx="732.71" cy="539.52" rx="17.5" ry="8.5"/><path class="cls-2" d="M137.29,439.48H75.19a6.34,6.34,0,0,1-6.34-6.34V228.54a6.35,6.35,0,0,1,6.34-6.34h62.1a6.35,6.35,0,0,1,6.34,6.34v204.6A6.35,6.35,0,0,1,137.29,439.48Z"/><path class="cls-2" d="M250.52,439.48H188.43a6.34,6.34,0,0,1-6.34-6.34V147.35a6.35,6.35,0,0,1,6.34-6.34h62.09a6.36,6.36,0,0,1,6.35,6.34V433.14A6.36,6.36,0,0,1,250.52,439.48Z"/><path class="cls-2" d="M363.76,439.48H301.67a6.36,6.36,0,0,1-6.35-6.34V228.54a6.36,6.36,0,0,1,6.35-6.34h62.09a6.35,6.35,0,0,1,6.34,6.34v204.6A6.34,6.34,0,0,1,363.76,439.48Z"/><path class="cls-2" d="M477,439.48H414.9a6.2,6.2,0,0,1-6.34-6.05V115A6.22,6.22,0,0,1,414.9,109H477a6.21,6.21,0,0,1,6.34,6.06V433.43A6.2,6.2,0,0,1,477,439.48Z"/><path class="cls-2" d="M590.24,439.48h-62.1a6.34,6.34,0,0,1-6.34-6.34V57.62a6.34,6.34,0,0,1,6.34-6.34h62.1a6.35,6.35,0,0,1,6.34,6.34V433.14A6.35,6.35,0,0,1,590.24,439.48Z"/><circle class="cls-3" cx="106.24" cy="183.74" r="12.82"/><circle class="cls-3" cx="219.48" cy="100.42" r="12.82"/><circle class="cls-3" cx="332.71" cy="183.74" r="12.82"/><circle class="cls-3" cx="445.95" cy="59.82" r="12.82"/><circle class="cls-3" cx="559.19" cy="12.82" r="12.82"/><path class="cls-4" d="M663,441.86H1a1,1,0,0,1,0-2H663a1,1,0,0,1,0,2Z"/><path class="cls-4" d="M828,612.86H504a1,1,0,0,1,0-2H828a1,1,0,0,1,0,2Z"/><path class="cls-5" d="M619.94,425.61a7.93,7.93,0,0,0,0-11.21,7,7,0,0,0-1.07-.9l3.93-17.69-10.16-5-5.21,25.06a8,8,0,0,0,12.48,9.76Z"/><path class="cls-5" d="M731.12,426a7.94,7.94,0,0,0-.83-11.19,9.06,9.06,0,0,0-1.14-.81l2.55-17.94-10.52-4.21-3.25,25.39A8,8,0,0,0,731.12,426Z"/><polygon class="cls-5" points="651.86 602.08 641.49 602.08 636.56 562.09 651.86 562.09 651.86 602.08"/><path class="cls-6" d="M654.51,612.13H621.08v-.43a13,13,0,0,1,13-13h20.42Z"/><polygon class="cls-5" points="686.53 602.08 676.17 602.08 671.24 562.09 686.54 562.09 686.53 602.08"/><path class="cls-6" d="M689.18,612.13H655.75v-.43a13,13,0,0,1,13-13h20.42Z"/><path class="cls-6" d="M707.41,265.63l11.18-4s4.74,1,4.74,13.87,12.61,132.88,12.61,132.88l-22.06,5.81L701.42,300.3Z"/><path class="cls-6" d="M632.7,265.63l-11.18-4s-4.74,1-4.74,13.87-12.6,132.88-12.6,132.88l22.05,5.81L638.7,300.3Z"/><path class="cls-6" d="M632.85,402.51l-3.06,90.15,6.77,99.72,17.43.41,2.54-93,14.37-46.51-1.45,137.09,19.74-.24,12.23-94.31s16.14-78.06,7.19-93.28L667.38,388.8Z"/><path class="cls-7" d="M633.18,391.64l-1,21.69s13.91,6.92,38.36,2.71,40.71-1.44,40.71-1.44L709.38,387Z"/><path class="cls-6" d="M621.08,261.92l32.15-14.09,1.92-7.38,31.28.9,1.35,7.54,30.81,12.71L705,308.79l1.39,33.2,16.92,60.52s-14.27,12.12-48.57,6.91l-5.92-11.93-3.62,12.61s-30.08,11.07-38.41-3.34l6-104Z"/><circle class="cls-5" cx="670.51" cy="212.74" r="20.77"/><path class="cls-6" d="M695.19,204.7a12.75,12.75,0,0,0-2.1-4.69,25.35,25.35,0,0,0-3.79-10.92,11.46,11.46,0,0,0-3.38-3.91,10.08,10.08,0,0,0-5.34-1.33c-.33,0-.94.1-1.49.12-.35-.11-.71-.2-1.06-.29-.21-.46-.62-1.81-.73-1.72l-1.55,1.23c-.65-.11-1.31-.2-2-.27l-.72-2.06a15.52,15.52,0,0,0-1,1.93c-.65,0-1.31,0-2,0l-1.31-1.26a1.85,1.85,0,0,1-1.45,1.42c-.61.06-1.21.14-1.81.24h-.15c-3.24-.08-6.72-.23-9.43,1.55a9.21,9.21,0,0,0-3,3.41c-.33.22-.67.45-1,.69a10.85,10.85,0,0,0-2.78,2.75,11.76,11.76,0,0,0-1.22,3,28.29,28.29,0,0,0-1.42,9.75,14.51,14.51,0,0,0,3.56,9c1.39,1.49,3.15,2.59,4.54,4.08,2.87,3.07,3.4,7.35,5.85,10.6,2.59,3.43,7.32,5.69,11.48,6.34a19.14,19.14,0,0,0,14.27-3.56,8.82,8.82,0,0,0,2.43-2.55c1.44-2.49.83-5.62,1.37-8.45C691,214.47,696.06,210,695.19,204.7Z"/><polygon class="cls-3" points="105.56 184.55 104.36 182.94 219.48 97.24 332.35 181.43 446.76 57.2 446.97 57.12 558.01 11.29 558.77 13.14 447.94 58.88 332.6 184.11 219.48 99.73 105.56 184.55"/></svg>