<svg id="aab4e145-1295-43ae-9e06-9d99b4541c84" xmlns="http://www.w3.org/2000/svg" viewBox="0 0 596.38 544.04"><defs><style>.cls-1{fill:#f0f0f0;}.cls-2{fill:#fff;}.cls-3{fill:#e4e4e4;}.cls-4{fill:#50cdfa;}.cls-5{fill:#ffb6b6;}.cls-6{fill:#2f2e41;}.cls-7{fill:#3f3d56;}.cls-8{fill:#e6e6e6;}.cls-9{fill:#e5e5e5;}.cls-10{fill:#cacaca;}</style></defs><path class="cls-1" d="M553.48,420c27.14-18.18,46.62-50.49,42.14-82.84a150.5,150.5,0,0,1-92.28,46.48c-13.62,1.53-28.92,1.83-38.47,11.64-5.95,6.11-8.39,15-8.42,23.48s2.14,16.89,4.28,25.14l-.48,2.07C492.88,444.3,526.35,438.14,553.48,420Z"/><path class="cls-2" d="M594.93,337.11a128.6,128.6,0,0,1-50.27,61.13,55.19,55.19,0,0,1-15.77,7.24,31.8,31.8,0,0,1-16.71-.43c-5.1-1.42-10.15-3.46-15.5-3.62a19.43,19.43,0,0,0-14.61,6.3c-4.76,4.91-7.46,11.24-9.89,17.51-2.69,7-5.38,14.26-11,19.47-.68.63.34,1.65,1,1,9.75-9.07,10.66-23.42,18.28-33.89,3.56-4.88,8.61-8.72,14.84-9,5.45-.21,10.65,1.89,15.8,3.37a34,34,0,0,0,16.33,1,51,51,0,0,0,16-6.61,124.65,124.65,0,0,0,29.77-25.2,130.67,130.67,0,0,0,23.1-38c.34-.86-1.05-1.22-1.39-.37Z"/><path class="cls-2" d="M552.27,394a19.29,19.29,0,0,0,24.66,4c.8-.48.09-1.74-.71-1.25A17.87,17.87,0,0,1,553.29,393c-.6-.71-1.61.31-1,1Z"/><path class="cls-2" d="M514.66,406.11a37.23,37.23,0,0,1,11.66-24.47c.68-.63-.34-1.65-1-1a38.65,38.65,0,0,0-12.08,25.49C513.16,407,514.6,407,514.66,406.11Z"/><path class="cls-2" d="M581.22,363.64a10.91,10.91,0,0,1-4.19-9.49c.07-.92-1.37-.91-1.44,0a12.23,12.23,0,0,0,4.61,10.5.74.74,0,0,0,1,0,.72.72,0,0,0,0-1Z"/><path class="cls-1" d="M501.52,279c-.06.58-.13,1.15-.2,1.74a145.11,145.11,0,0,1-4.55,22.89c-.16.58-.32,1.17-.5,1.74a151.51,151.51,0,0,1-25.45,49.7,145.78,145.78,0,0,1-15,16.6c-7.48,7.1-16.16,14.21-20.72,23.1a25.28,25.28,0,0,0-1.29,2.86l24,47.56.32.24.87,1.95.89-.76.52-.43a4.19,4.19,0,0,1,.34-.28l.1-.09c.11-.08.2-.17.3-.25q2.55-2.18,5.08-4.41s0,0,0,0c12.82-11.35,24.82-23.86,34.53-37.8.29-.42.59-.85.88-1.29A140.48,140.48,0,0,0,513,382.16a124.91,124.91,0,0,0,4.73-11.64,103.47,103.47,0,0,0,5.66-31.81c.42-21.59-6.08-43.08-20.77-58.54C502.28,279.78,501.91,279.39,501.52,279Z"/><path class="cls-2" d="M501,279.41a128.65,128.65,0,0,1-3.33,79.08,55.59,55.59,0,0,1-8.24,15.27,31.64,31.64,0,0,1-13.6,9.72c-4.93,1.94-10.19,3.35-14.56,6.45a19.43,19.43,0,0,0-7.87,13.82c-.84,6.78.81,13.46,2.66,19.94,2,7.18,4.28,14.62,2.94,22.15-.16.92,1.26,1.11,1.43.2,2.32-13.11-5.6-25.11-5.81-38.06-.1-6,1.62-12.15,6.45-16.09,4.22-3.45,9.65-4.9,14.65-6.82a33.92,33.92,0,0,0,13.66-9,51.39,51.39,0,0,0,8.79-14.9,124.83,124.83,0,0,0,8.59-38.05,130.77,130.77,0,0,0-4.43-44.24c-.24-.89-1.57-.34-1.33.54Z"/><path class="cls-2" d="M501.14,350.5a19.3,19.3,0,0,0,22.12-11.64c.34-.86-1-1.43-1.32-.57a17.86,17.86,0,0,1-20.6,10.78C500.44,348.87,500.24,350.29,501.14,350.5Z"/><path class="cls-2" d="M478.43,382.83A37.15,37.15,0,0,1,473,356.27c.16-.91-1.27-1.11-1.43-.2a38.72,38.72,0,0,0,5.71,27.63C477.78,384.48,478.93,383.61,478.43,382.83Z"/><path class="cls-2" d="M506,308.85a10.89,10.89,0,0,1-9.05-5.05c-.5-.78-1.65.09-1.15.87a12.25,12.25,0,0,0,10,5.61.74.74,0,0,0,.81-.62A.72.72,0,0,0,506,308.85Z"/><path class="cls-1" d="M.35,481.05c2-21,14.39-42,34.16-49.4a97.32,97.32,0,0,0,1.92,66.74c3.31,8.22,7.84,17,5.2,25.45-1.65,5.26-5.93,9.37-10.77,12s-10.25,4-15.6,5.29l-1,.91C5.13,523-1.65,502.07.35,481.05Z"/><path class="cls-2" d="M34.72,432A83.13,83.13,0,0,0,15.41,479.4a35.68,35.68,0,0,0,.73,11.19A20.54,20.54,0,0,0,21.51,500c2.38,2.46,5.09,4.71,6.82,7.7a12.57,12.57,0,0,1,.91,10.24c-1.33,4.21-4.1,7.69-6.92,11-3.14,3.68-6.45,7.44-7.69,12.23-.15.58-1.05.31-.9-.27,2.16-8.33,10.05-13.25,13.66-20.8,1.68-3.52,2.31-7.57.54-11.19-1.56-3.16-4.35-5.48-6.78-7.95a21.86,21.86,0,0,1-5.6-9,33.1,33.1,0,0,1-1.15-11.12,80.43,80.43,0,0,1,5.18-24.66,84.54,84.54,0,0,1,14.51-24.81c.38-.46,1,.23.63.68Z"/><path class="cls-2" d="M15.5,473.76A12.48,12.48,0,0,1,5.63,461a.47.47,0,0,1,.49-.44.45.45,0,0,1,.44.46,11.55,11.55,0,0,0,9.2,11.87c.59.12.32,1-.26.89Z"/><path class="cls-2" d="M20.15,498.87a24,24,0,0,0,10.33-14.14c.15-.58,1-.32.89.26a25.05,25.05,0,0,1-10.78,14.7c-.51.32-.95-.5-.44-.82Z"/><path class="cls-2" d="M23.85,448a7.11,7.11,0,0,0,6.68-.53c.5-.33.94.49.44.81a7.9,7.9,0,0,1-7.38.61.48.48,0,0,1-.31-.58.45.45,0,0,1,.57-.31Z"/><path class="cls-1" d="M92.45,467.3l-.92.65c-4.13,2.88-4,6.1-7.62,9.62l-.84.81a98.34,98.34,0,0,0-20.44,29.74,95.5,95.5,0,0,0-4.82,13.63c-1.74,6.44-3.12,13.56-6.77,18.88a17.55,17.55,0,0,1-1.23,1.61l-34.4,1-.24-.11-1.37.11.15-.75.09-.42.06-.28a.29.29,0,0,1,0-.09,2,2,0,0,1,.05-.24c.3-1.42.62-2.83.94-4.25h0A140,140,0,0,1,26,505.94c.15-.29.3-.59.47-.89a90.19,90.19,0,0,1,7.8-12.6,77.5,77.5,0,0,1,5.17-6.27,66.7,66.7,0,0,1,16.34-13c12.15-6.87,22.36-9.77,35.66-6.17Z"/><path class="cls-2" d="M92.39,467.74c-16.86,3.85-28.59,13.11-39.93,26.18a35.83,35.83,0,0,0-6.16,9.38A20.47,20.47,0,0,0,45,514c.41,3.39,1.23,6.82.81,10.25A12.61,12.61,0,0,1,40.32,533c-3.6,2.55-7.91,3.67-12.15,4.61-4.72,1-9.63,2.06-13.51,5.13-.46.37-1-.38-.55-.75,6.74-5.35,16-4.53,23.43-8.39C41,531.81,44,529,44.7,525c.67-3.46-.17-7-.62-10.42A22,22,0,0,1,45,504a33.18,33.18,0,0,1,5.77-9.58,80.56,80.56,0,0,1,19-16.57c8.14-5.17,13.12-8.93,22.52-11.07.58-.14.68.79.1.92Z"/><path class="cls-2" d="M55.92,489.48a12.48,12.48,0,0,1-.18-16.15c.39-.46,1.12.12.73.58a11.55,11.55,0,0,0,.2,15C57.06,489.38,56.31,489.93,55.92,489.48Z"/><path class="cls-2" d="M44.51,512.33a24.08,24.08,0,0,0,16.77-5.08c.47-.37,1,.38.55.75a25,25,0,0,1-17.46,5.25c-.59,0-.45-1,.14-.92Z"/><path class="cls-2" d="M78.11,473.93a7.05,7.05,0,0,0,5.65,3.59c.6.05.46,1-.14.92a7.9,7.9,0,0,1-6.26-4,.48.48,0,0,1,.1-.65A.46.46,0,0,1,78.11,473.93Z"/><path class="cls-2" d="M429.48,2H406a17.49,17.49,0,0,1-9.58,22.78,17.59,17.59,0,0,1-6.6,1.29H286.5A17.48,17.48,0,0,1,270.32,2h-22a36.78,36.78,0,0,0-36.78,36.78h0v466.1a36.77,36.77,0,0,0,36.78,36.77H429.48a36.77,36.77,0,0,0,36.77-36.77h0V38.78A36.78,36.78,0,0,0,429.48,2Z"/><path class="cls-3" d="M429.48,543.65H248.35a38.81,38.81,0,0,1-38.78-38.77V38.78A38.82,38.82,0,0,1,248.35,0h25l-1.13,2.76a15.47,15.47,0,0,0,8.49,20.16,15.39,15.39,0,0,0,5.84,1.15H389.77A15.48,15.48,0,0,0,404.1,2.76L403,0h26.51a38.83,38.83,0,0,1,38.78,38.78v466.1A38.83,38.83,0,0,1,429.48,543.65ZM248.35,4a34.82,34.82,0,0,0-34.78,34.78v466.1a34.81,34.81,0,0,0,34.78,34.77H429.48a34.82,34.82,0,0,0,34.78-34.77V38.78A34.82,34.82,0,0,0,429.48,4H408.69a19.47,19.47,0,0,1-14.32,23.52,19.29,19.29,0,0,1-4.6.55H286.5A19.47,19.47,0,0,1,267,8.58,19.13,19.13,0,0,1,267.58,4Z"/><path class="cls-4" d="M430.84,73.63H376.22a2.32,2.32,0,1,1,0-4.63h54.62a2.32,2.32,0,0,1,0,4.63Z"/><path class="cls-4" d="M430.84,84H376.22a2.32,2.32,0,0,1,0-4.64h54.63a2.32,2.32,0,0,1,0,4.64Z"/><path class="cls-4" d="M430.84,94.42H376.22a2.32,2.32,0,1,1,0-4.63h54.63a2.32,2.32,0,0,1,0,4.63Z"/><polygon class="cls-5" points="154.57 533.53 163.72 533.53 168.08 498.23 154.57 498.23 154.57 533.53"/><path class="cls-6" d="M152.24,530.55h18A11.5,11.5,0,0,1,181.75,542v.37H152.24Z"/><polygon class="cls-5" points="118.79 525.01 127.42 528.05 143.25 496.2 130.51 491.72 118.79 525.01"/><path class="cls-6" d="M117.58,521.42l17,6h0a11.49,11.49,0,0,1,7,14.65l-.12.36-27.84-9.8Z"/><polygon class="cls-6" points="113.35 328.35 107.81 334.38 130.21 427.61 153.22 518.53 171.61 518.53 161.03 431.77 161.03 342.54 113.35 328.35"/><polygon class="cls-6" points="170.6 335.82 173.02 344.85 160.06 425.37 141.66 510.69 120.83 510.69 136.47 406.08 155.59 329.07 170.6 335.82"/><path class="cls-7" d="M182.05,202.05,174,187.51l-19.21-3.15h0a48.55,48.55,0,0,0-35.91,42.22l-10.42,106.7S161.72,357.82,173,344l15.72-121.12A24,24,0,0,0,182.05,202.05Z"/><circle class="cls-5" cx="168.4" cy="159.26" r="20.39"/><path class="cls-6" d="M195.18,148.14a5.06,5.06,0,0,1-3-2.3,4.89,4.89,0,0,1,0-5,7.36,7.36,0,0,0-6.12-.31,7,7,0,0,0,2.36-5.89l-7.34,2.49a5.4,5.4,0,0,0,1.85-6c-2,2.86-6.17,3.24-9.56,2.39s-6.52-2.64-10-3.18a14.15,14.15,0,0,0-16.17,11.81c-.05.31-.09.62-.12.94a5.28,5.28,0,0,0-4.14,3,11.32,11.32,0,0,0-1,5.23,28,28,0,0,0,11.23,22l1.13-.39a9,9,0,0,1,8.09-9.48c3-.19,6.52,1,8.65-1.1,2-1.92,1.26-5.36,2.85-7.59,1.39-1.94,4.14-2.4,6.48-1.93s4.47,1.65,6.74,2.37,4.93.93,6.89-.44a7,7,0,0,0,2.6-5.38,10.44,10.44,0,0,0,0-1.25A5.44,5.44,0,0,1,195.18,148.14Z"/><rect class="cls-2" x="59.07" y="338.52" width="209.96" height="60.8"/><path class="cls-3" d="M270.94,401.23H57.16V336.61H270.94ZM61,397.42H267.12v-57H61Z"/><path class="cls-4" d="M228.24,359.43H99.85a2.72,2.72,0,0,1,0-5.44h128.4a2.72,2.72,0,1,1,0,5.44Z"/><path class="cls-4" d="M228.24,371.65H99.85a2.73,2.73,0,0,1,0-5.45H228.24a2.73,2.73,0,0,1,0,5.45Z"/><path class="cls-4" d="M176.27,383.86H99.85a2.72,2.72,0,0,1,0-5.44h76.43a2.72,2.72,0,1,1,0,5.44Z"/><path class="cls-5" d="M184.22,346.12a7.49,7.49,0,0,1,.4-11.5L176,309.36l13.41,3.5,6.11,23.45a7.55,7.55,0,0,1-11.33,9.81Z"/><path class="cls-7" d="M178.28,329.29l-13.91-51.42-1.22-62.63a11.84,11.84,0,0,1,8.27-11.57h0A11.91,11.91,0,0,1,187,215.55l-2.24,49.28,11,58.84Z"/><path class="cls-5" d="M134,347.61a7.49,7.49,0,0,1,.4-11.5l-8.59-25.25,13.41,3.49,6.11,23.45A7.55,7.55,0,0,1,134,347.61Z"/><path class="cls-7" d="M125.93,326.89,120,274l8.31-62.16A11.91,11.91,0,1,1,151.9,215c0,.26-.07.51-.12.77l-9.7,48.37,2,59.83Z"/><path class="cls-2" d="M580,511.54H258.57v-74H580Z"/><path class="cls-8" d="M305,462a3.14,3.14,0,0,0,0,6.27H533.62a3.14,3.14,0,0,0,0-6.27Z"/><path class="cls-8" d="M305,480.82a3.14,3.14,0,0,0,0,6.27H449.51a3.14,3.14,0,1,0,0-6.27H305Z"/><path class="cls-9" d="M580,511.54H258.57v-74H580Zm-316.13-5.28H574.71v-63.4H263.86Z"/><path class="cls-1" d="M73.51,298.8a13.42,13.42,0,1,1,13.43-13.42A13.42,13.42,0,0,1,73.51,298.8Z"/><path class="cls-1" d="M134.75,108.61A14.81,14.81,0,1,1,149.56,93.8a14.81,14.81,0,0,1-14.81,14.81Z"/><path class="cls-1" d="M516.8,214.48a12.74,12.74,0,1,1,12.74-12.74h0A12.74,12.74,0,0,1,516.8,214.48Z"/><rect class="cls-2" x="240.9" y="133.28" width="195.25" height="147.45"/><path class="cls-3" d="M438.71,283.28H238.34V130.72H438.71Zm-195.25-5.11H433.6V135.83H243.46Z"/><polygon class="cls-1" points="433.94 136.29 244.22 136.29 433.94 279.29 433.94 136.29"/><path class="cls-4" d="M543.74,542.46a28.74,28.74,0,1,1,28.73-28.74,28.74,28.74,0,0,1-28.73,28.74Z"/><path class="cls-2" d="M555.08,510.89h-8.51v-8.5a2.84,2.84,0,0,0-5.67,0v8.5h-8.5a2.84,2.84,0,0,0,0,5.67h8.5v8.5a2.84,2.84,0,1,0,5.67,0h0v-8.5h8.51a2.84,2.84,0,1,0,0-5.67Z"/><path class="cls-10" d="M578.8,544H1.51a1.19,1.19,0,1,1,0-2.38H578.8a1.19,1.19,0,1,1,0,2.38Z"/></svg>