<svg id="bdfa5e51-8543-4635-b366-be55a5c0ef94" xmlns="http://www.w3.org/2000/svg" viewBox="0 0 951 428"><defs><style>.cls-1{fill:#e6e6e6;}.cls-2{fill:#f2f2f2;}.cls-3{fill:#fff;}.cls-4{fill:#50cdfa;}.cls-5{fill:#ccc;}.cls-6{fill:#ffb7b7;}.cls-7{fill:#3f3d56;}.cls-8{fill:#2f2e41;}.cls-9{fill:#ffb8b8;}.cls-10{fill:#cbcbcb;}.cls-11{fill:#9f616a;}.cls-12{isolation:isolate;opacity:0.25;}</style></defs><path id="b606c935-a134-40cd-80b0-a21a1aa0225b" class="cls-1" d="M78.25,391a22.7,22.7,0,0,0,21.94-3.87c7.69-6.45,10.1-17.08,12.06-26.92l5.8-29.11-12.14,8.36c-8.73,6-17.66,12.22-23.71,20.93s-8.69,20.6-3.83,30"/><path id="a422fa29-1efa-4f1e-8f54-a5852f8559f8" class="cls-2" d="M79.29,426.21c-1.23-8.95-2.5-18-1.64-27.06.77-8,3.22-15.89,8.21-22.33a37.16,37.16,0,0,1,9.53-8.63c1-.6,1.83.91.88,1.51a35.24,35.24,0,0,0-14,16.85c-3,7.73-3.53,16.16-3,24.37.32,5,1,9.9,1.66,14.83a.89.89,0,0,1-.61,1.07.87.87,0,0,1-1.07-.61Z"/><path id="e1d169dc-da63-490d-893d-3e04e06c6dbd" class="cls-1" d="M902.32,379.58a24.23,24.23,0,0,1-23.38-4.12c-8.19-6.88-10.76-18.2-12.85-28.68l-6.18-31,12.94,8.91c9.31,6.41,18.82,13,25.26,22.3s9.25,21.94,4.08,32"/><path id="b7dc7a19-2955-4780-ad93-c52a96f67a65" class="cls-2" d="M900.33,419.29c1.62-11.87,3.3-23.88,2.15-35.87-1-10.65-4.26-21.05-10.87-29.58A49.2,49.2,0,0,0,879,342.4c-1.26-.8-2.42,1.2-1.17,2a46.84,46.84,0,0,1,18.51,22.33c4,10.25,4.67,21.42,4,32.3-.42,6.58-1.31,13.12-2.21,19.65a1.2,1.2,0,0,0,.81,1.42,1.17,1.17,0,0,0,1.43-.8Z"/><path id="ba9a9309-6361-43cb-a10e-efdc2c0b21e6" class="cls-1" d="M888.61,400.25a17.85,17.85,0,0,1-15.54,8c-7.86-.37-14.41-5.86-20.31-11.07L835.3,381.79l11.55-.55c8.31-.4,16.83-.77,24.74,1.79s15.21,8.73,16.66,16.92"/><path id="abb4e2ed-9276-4565-9a98-ba1ebe7a1fe1" class="cls-2" d="M904.93,426.11c-7.84-13.87-16.93-29.29-33.18-34.22a37.23,37.23,0,0,0-14-1.44c-1.48.13-1.11,2.41.37,2.29a34.32,34.32,0,0,1,22.27,5.89c6.28,4.27,11.17,10.22,15.31,16.52,2.53,3.86,4.81,7.88,7.08,11.9C903.54,428.33,905.66,427.41,904.93,426.11Z"/><path class="cls-3" d="M682.4,258.27h-393v-84h393Z"/><circle class="cls-4" cx="340.33" cy="216.27" r="21.34"/><path class="cls-4" d="M389.61,202a3.56,3.56,0,1,0,0,7.11H649.27a3.56,3.56,0,0,0,0-7.11Z"/><path class="cls-4" d="M389.61,223.38a3.56,3.56,0,1,0,0,7.11H553.75a3.56,3.56,0,1,0,0-7.11H389.61Z"/><path class="cls-5" d="M682.4,258.27h-393v-84h393Zm-387-6h381v-72h-381Z"/><path class="cls-6" d="M793.07,237.4a8.12,8.12,0,0,1,6.47-10.63l4.44-18,11.6,0-6.64,25.33a8.16,8.16,0,0,1-15.87,3.26Z"/><path class="cls-7" d="M812.65,225.75l-17.76-1.23,8.6-51.26L798,116.8l18-7.36,12,62.69,0,.12Z"/><path class="cls-6" d="M675.31,219.75a8.12,8.12,0,0,1,8-8.26,8.6,8.6,0,0,1,1.43.1l9.73-15.78,11,3.57-14.05,22.1a8.16,8.16,0,0,1-16.11-1.73Z"/><polygon class="cls-6" points="730.09 417.1 720.64 417.1 716.14 380.66 730.09 380.66 730.09 417.1"/><path class="cls-8" d="M732.5,426.26H702v-.38A11.86,11.86,0,0,1,713.89,414H732.5Z"/><polygon class="cls-6" points="796.01 417.1 786.56 417.1 782.06 380.66 796.01 380.66 796.01 417.1"/><path class="cls-8" d="M798.42,426.26H768v-.38A11.86,11.86,0,0,1,779.81,414h18.61Z"/><circle class="cls-9" cx="787.02" cy="52.4" r="22.45"/><path class="cls-8" d="M779.44,51.17a14.63,14.63,0,0,1-13.79-25.66c6-4,14.9-2.67,20.69,2a20.2,20.2,0,0,1,23.37,4.85c5.59,6.46,6.2,16.73,2.13,24.27a26.38,26.38,0,0,0,1.55,24.71c-1.76-.07-5.62-.4-10.45-.81-1.39-.12-2-4.23-3.53-4.36-1.35-.12-3.62,3.74-5,3.62-10.49-.89-22.23-1.79-27.55-1.61C770.84,68.77,774.85,59.38,779.44,51.17Z"/><path class="cls-8" d="M804.24,210.55s7.29,7.52,2.84,46.36L804,339.39l-5.45,73L781,411.25,765.65,243.17l-21.55,61.5L732.5,406.36l-16.81-1.17-2.87-101.12,7.37-78.14Z"/><path class="cls-7" d="M732,230.63c-9,0-12.58-1.08-12.84-1.16l-.42-.13.08-.43c.06-.35,6.08-35.46,14.34-53.9L739,100.26a9.87,9.87,0,0,1,8.33-9l.08.5-.08-.5,14.78-2.32,9-8,21.66,1.2,1.91,9.16c2.59.72,19.68,6,21.38,18.51l0,.15-.08.14-31.31,60.25c2.64,2.61,23.56,24.09,25,51.56l0,.66-.64-.15c-.06,0-6.76-1.28-42,4.67C750.87,229.87,739.56,230.63,732,230.63Z"/><path class="cls-7" d="M697.31,219.38l-12.76-9.83,28.49-57,26.49-55.87a4.24,4.24,0,0,1,7.91.69l6.56,23.8-20.51,53.36Z"/><path class="cls-10" d="M950,428H569a1,1,0,0,1,0-2H950a1,1,0,0,1,0,2Z"/><polygon class="cls-7" points="510.84 126 456.84 126 456.84 72 483.84 72 483.84 74 458.84 74 458.84 124 508.84 124 508.84 99 510.84 99 510.84 126"/><polygon class="cls-4" points="482.83 110.05 469.71 94.98 471.97 93.02 482.86 105.51 512.72 72 514.96 74 482.83 110.05"/><path class="cls-1" d="M175.7,67.24,177,60.93s18.58-6.32,20.65,6.31Z"/><polygon class="cls-11" points="211.34 414.82 223.52 414.82 229.31 367.86 211.34 367.86 211.34 414.82"/><path class="cls-8" d="M208.24,410.85h24a15.28,15.28,0,0,1,15.28,15.28v.49H208.24Z"/><polygon class="cls-11" points="152.65 414.82 164.83 414.82 170.62 367.86 152.65 367.86 152.65 414.82"/><path class="cls-8" d="M149.55,410.85h24a15.28,15.28,0,0,1,15.27,15.28v.49H149.55Z"/><polygon class="cls-7" points="158.03 93.75 144.14 92.49 135.3 134.15 136.56 172.03 150.45 222.53 169.39 211.17 159.29 159.4 158.03 93.75"/><polygon class="cls-8" points="149.24 218.11 152.35 244.62 155.26 306.49 148.56 398.68 172.55 397.39 184.3 301.44 191.48 257.25 201.58 307.75 207.9 402.44 232.52 400.47 232.52 307.42 233.15 239.57 224.31 213.06 149.24 218.11"/><path class="cls-7" d="M201,68.5s-8.83-12.62-25.25-3.79l-7.57,10.1-24,17.68,5.05,59.34-6.31,74.49,89.64-1.27-15.15-74.48V71Z"/><polygon class="cls-12" points="152.35 113.45 145.11 200 154.24 153.09 152.35 113.45"/><path class="cls-11" d="M303,186a9.31,9.31,0,0,1-11.81-5.82,8.89,8.89,0,0,1-.39-1.6l-20.66-5.1,0-13.31,29.07,7.62A9.36,9.36,0,0,1,303,186Z"/><rect class="cls-1" x="273.94" y="166.32" width="20.2" height="8.84" transform="translate(67.01 421.19) rotate(-80.1)"/><circle class="cls-11" cx="186.9" cy="28.57" r="25.35"/><path class="cls-8" d="M188.8,50.93A25.72,25.72,0,0,1,172,2.6,30,30,0,0,1,186.17.05c7.58.4,15,3.2,22.54,3l1.1,1.77,4.15-1,.89,3.3,1.09,0c2,3.63-1.19,8.84-5.32,8.79a23.86,23.86,0,0,1-4.78-1c-1.6-.34-3.48-.25-4.58.95-1.43,1.57-.81,4-.51,6.12s-.45,4.94-2.57,5c-1.09,0-2.12-.75-3.18-.54-1.24.24-1.87,1.74-1.69,3a11.93,11.93,0,0,0,1.49,3.46,14,14,0,0,1-5.54,17.82"/><path class="cls-7" d="M211.34,75.91l6-4.88s12.16-.85,11.94,12L248.77,144l37.33,13.22-5,26L228.25,163l-26.83-44.47Z"/><path class="cls-10" d="M382,428H1a1,1,0,0,1,0-2H382a1,1,0,0,1,0,2Z"/></svg>